<svg viewBox="0 0 512 512" xmlns="http://www.w3.org/2000/svg" role="img">
    <g fill="#fff">
        <path d="M111.99,485.922a6,6,0,0,0,7.828-3.276l66.994-163.527A20.938,20.938,0,0,1,199,307.768v172.6a6,6,0,0,0,12,0V307.639a18.966,18.966,0,0,1,12.6,11.48L290.61,482.646a6,6,0,1,0,11.1-4.55L234.7,314.569A31.012,31.012,0,0,0,211,295.327V270.779A5.973,5.973,0,0,0,206.624,265h3.436c10.863,0,20.025-8,22.683-18H177.694c2.659,10,11.821,18,22.683,18h3.056A6.024,6.024,0,0,0,199,270.779V295.4a32.385,32.385,0,0,0-23.291,19.17l-67,163.527A6,6,0,0,0,111.99,485.922Z"></path>
        <path d="M136.153,128h-5.617c-7.72,0-13.536,6.568-13.536,14.288v79.03A13.357,13.357,0,0,0,130.536,235H279.9A13.832,13.832,0,0,0,294,221.318V137.855A59.564,59.564,0,0,1,226.243,128H191.021a35.932,35.932,0,0,1-54.868,0Zm39.68,45h53a6,6,0,0,1,0,12h-53a6,6,0,1,1,0-12Z"></path>
        <circle cx="163.587" cy="105.015" r="24"></circle>
        <path d="M266.851,72.964A12.051,12.051,0,1,0,278.9,85.015,12.065,12.065,0,0,0,266.851,72.964Z"></path>
        <path d="M395,246.625V116.981l-20.377,5.809A3.764,3.764,0,0,0,372,126.641V236.965a3.763,3.763,0,0,0,2.623,3.851Z"></path>
        <path d="M266.851,37.629a47.386,47.386,0,1,0,47.385,47.386A47.44,47.44,0,0,0,266.851,37.629Zm0,71.437A24.051,24.051,0,1,1,290.9,85.015,24.079,24.079,0,0,1,266.851,109.066Z"></path>
        <polygon points="360 226.155 360 137.452 306 167.533 306 196.073 360 226.155"></polygon>
    </g>
</svg>